<svg xmlns="http://www.w3.org/2000/svg" viewBox="0 0 100 100" class="w-full h-full">
  <style>
    .stroke-path {
      fill: none;
      stroke: #57ff9e;
      stroke-width: 3;
      stroke-linecap: round;
      stroke-linejoin: round;
      stroke-dasharray: 1200;
      stroke-dashoffset: 1200;
      animation: draw 3s linear forwards infinite;
    }
    .filled {
      fill: #57ff9e;
      opacity: 0;
      animation: fillIn 1s ease 3.2s forwards infinite;
    }
    @keyframes draw { to { stroke-dashoffset: 0; } }
    @keyframes fillIn { to { opacity: 1; } }
  </style>
  
  <!-- Paths (already in correct scale) -->
  <path d="M45.9823 0.6255L23.9384 13.9806V41.9843L45.9823 28.61V0.6255Z" class="stroke-path" style="animation-delay:0s"/>
  <path d="M47.9823 28.61L70.0262 41.9843V13.9806L47.9823 0.6255V28.61Z" class="stroke-path" style="animation-delay:0.3s"/>
  <path d="M0.8956 56.7911L23.9395 42.0662V69.3339L0.8956 83.135V56.7911Z" class="stroke-path" style="animation-delay:0.6s"/>
  <path d="M1.7432 84.9587L23.9373 98.7968L46.9812 84.7741L24.6598 71.2314L1.7432 84.9587Z" class="stroke-path" style="animation-delay:0.9s"/>
  <path d="M93.0668 56.7889L70.0229 42.0481V69.9138L93.0668 83.7057V56.7889Z" class="stroke-path" style="animation-delay:1.2s"/>
  <path d="M92.0202 85.4101L68.8178 71.5234L46.9812 84.7719L70.0251 98.7946L92.0202 85.4101Z" class="stroke-path" style="animation-delay:1.5s"/>
  <path d="M47.8758 28.687H46.0758V56.6262L23.7691 69.519L24.6698 71.0775L47.1894 58.0616L68.909 71.4315L69.8526 69.8986L47.8758 56.3704V28.687Z" class="stroke-path" style="animation-delay:1.8s"/>
  
  <!-- Filled layers -->
  <path d="M45.9823 0.6255L23.9384 13.9806V41.9843L45.9823 28.61V0.6255Z" class="filled" style="animation-delay:0s"/>
  <path d="M47.9823 28.61L70.0262 41.9843V13.9806L47.9823 0.6255V28.61Z" class="filled" style="animation-delay:0.4s"/>
  <path d="M0.8956 56.7911L23.9395 42.0662V69.3339L0.8956 83.135V56.7911Z" class="filled" style="animation-delay:0.8s"/>
  <path d="M1.7432 84.9587L23.9373 98.7968L46.9812 84.7741L24.6598 71.2314L1.7432 84.9587Z" class="filled" style="animation-delay:1.2s"/>
  <path d="M93.0668 56.7889L70.0229 42.0481V69.9138L93.0668 83.7057V56.7889Z" class="filled" style="animation-delay:1.6s"/>
  <path d="M92.0202 85.4101L68.8178 71.5234L46.9812 84.7719L70.0251 98.7946L92.0202 85.4101Z" class="filled" style="animation-delay:2s"/>
  <path d="M47.8758 28.687H46.0758V56.6262L23.7691 69.519L24.6698 71.0775L47.1894 58.0616L68.909 71.4315L69.8526 69.8986L47.8758 56.3704V28.687Z" class="filled" style="animation-delay:2.4s"/>
</svg>
