<svg xmlns="http://www.w3.org/2000/svg" viewBox="0.8956 0.6255 92.1712 98.1713" fill="none">
  <path d="M45.9823 0.6255L23.9384 13.9806V41.9843L45.9823 28.61V0.6255Z" fill="#57FF9E"></path>
  <path d="M47.9823 28.61L70.0262 41.9843V13.9806L47.9823 0.625488V28.61Z" fill="#57FF9E"></path>
  <path d="M0.895645 56.7911L23.9395 42.0662V69.3339L23.9384 69.3321L0.895653 83.135L0.895645 56.7911Z" fill="#57FF9E"></path>
  <path d="M1.74317 84.9587L23.9373 98.7968L46.9812 84.7741L24.6598 71.2314L1.74317 84.9587Z" fill="#57FF9E"></path>
  <path d="M93.0668 56.7889L70.0229 42.0481V69.9138L93.0668 83.7057V56.7889Z" fill="#57FF9E"></path>
  <path d="M92.0202 85.4101L68.8178 71.5234L46.9812 84.7719L70.0251 98.7946L92.0202 85.4101Z" fill="#57FF9E"></path>
  <path d="M47.8758 28.687H46.0758V56.6262L23.7691 69.519L24.6698 71.0775L47.1894 58.0616L68.909 71.4315L69.8526 69.8986L47.8758 56.3704V28.687Z" fill="#57FF9E"></path>
</svg>
